<svg xmlns="http://www.w3.org/2000/svg" width="43.75" height="50" viewBox="0 0 43.75 50"><defs><style>.a{fill:#e2e5e7;}.b{fill:#b0b7bd;}.c{fill:#cad1d8;}.d{fill:#f15642;}.e{fill:#fff;}</style></defs><path class="a" d="M99.125,0A3.134,3.134,0,0,0,96,3.125v43.75A3.134,3.134,0,0,0,99.125,50h31.25a3.134,3.134,0,0,0,3.125-3.125V12.5L121,0Z" transform="translate(-89.75)"/><path class="b" d="M355.125,12.5H364.5L352,0V9.375A3.134,3.134,0,0,0,355.125,12.5Z" transform="translate(-320.75)"/><path class="c" d="M393.375,137.375,384,128h9.375Z" transform="translate(-349.625 -115.5)"/><path class="d" d="M69.5,257.188a1.567,1.567,0,0,1-1.562,1.563H33.563A1.567,1.567,0,0,1,32,257.188V241.563A1.567,1.567,0,0,1,33.563,240H67.938a1.567,1.567,0,0,1,1.563,1.563Z" transform="translate(-32 -216.563)"/><g transform="translate(6.811 28.742)"><path class="e" d="M101.744,295.182a.86.86,0,0,1,.848-.862h2.886a3.124,3.124,0,0,1,0,6.247h-2.086v1.65a.784.784,0,0,1-.8.861.842.842,0,0,1-.848-.861Zm1.648.711v3.113h2.086a1.557,1.557,0,0,0,0-3.113Z" transform="translate(-101.744 -294.32)"/><path class="e" d="M188.686,304.117a.782.782,0,0,1-.862-.773v-7.1a.85.85,0,0,1,.862-.775h2.861c5.709,0,5.584,8.645.113,8.645Zm.788-7.12v5.6h2.073c3.373,0,3.523-5.6,0-5.6Z" transform="translate(-179.418 -295.359)"/><path class="e" d="M288.77,297.083v1.986h3.186a.966.966,0,0,1,.9.886.868.868,0,0,1-.9.75H288.77v2.623a.74.74,0,0,1-.748.773.794.794,0,0,1-.886-.773v-7.1a.79.79,0,0,1,.886-.775h4.386a.779.779,0,0,1,.875.775.863.863,0,0,1-.875.85H288.77Z" transform="translate(-269.031 -295.345)"/></g><path class="c" d="M125.688,417.563H96v1.563h29.688a1.567,1.567,0,0,0,1.563-1.562V416A1.567,1.567,0,0,1,125.688,417.563Z" transform="translate(-89.75 -375.375)"/></svg>