<svg xmlns="http://www.w3.org/2000/svg" width="43.75" height="50" viewBox="0 0 43.75 50"><defs><style>.a{fill:#e2e5e7;}.b{fill:#b0b7bd;}.c{fill:#cad1d8;}.d{fill:#84bd5a;}.e{fill:#fff;}</style></defs><path class="a" d="M99.125,0A3.134,3.134,0,0,0,96,3.125v43.75A3.134,3.134,0,0,0,99.125,50h31.25a3.134,3.134,0,0,0,3.125-3.125V12.5L121,0Z" transform="translate(-89.75)"/><path class="b" d="M355.125,12.5H364.5L352,0V9.375A3.134,3.134,0,0,0,355.125,12.5Z" transform="translate(-320.75)"/><path class="c" d="M393.375,137.375,384,128h9.375Z" transform="translate(-349.625 -115.5)"/><path class="d" d="M69.5,257.188a1.567,1.567,0,0,1-1.562,1.563H33.563A1.567,1.567,0,0,1,32,257.188V241.563A1.567,1.567,0,0,1,33.563,240H67.938a1.567,1.567,0,0,1,1.563,1.563Z" transform="translate(-32 -216.563)"/><g transform="translate(7.151 28.458)"><path class="e" d="M109.045,298.085l2.173-2.723c.65-.85,1.912.236,1.2,1.048-.748.887-1.536,1.85-2.286,2.836l2.548,3.173a.82.82,0,1,1-1.361.911l-2.3-2.948-2.261,3.012c-.638.911-2.05-.113-1.338-.962l2.511-3.186c-.787-.988-1.55-1.948-2.311-2.836a.808.808,0,1,1,1.25-1.022Z" transform="translate(-105.226 -294.688)"/><path class="e" d="M197.36,296.107a.779.779,0,0,1,.788-.763.762.762,0,0,1,.738.763v6.259h3.4a.824.824,0,1,1,0,1.636h-4.134a.755.755,0,0,1-.787-.761v-7.134Z" transform="translate(-188.363 -294.96)"/><path class="e" d="M270.692,293.679c.287-2.425,3.947-2.861,5.672-1.536a.731.731,0,1,1-.8,1.223c-.925-.586-3.023-.861-3.286.436-.338,2.05,5.1.877,5.009,4.2-.087,3.173-4.684,3.247-6.409,1.823a.923.923,0,0,1-.175-1.225.738.738,0,0,1,1.112-.086c1.023.7,3.661,1.223,3.847-.552C275.5,296.117,270.3,297.228,270.692,293.679Z" transform="translate(-254.402 -291.407)"/></g><path class="c" d="M125.688,417.563H96v1.563h29.688a1.567,1.567,0,0,0,1.562-1.562V416A1.567,1.567,0,0,1,125.688,417.563Z" transform="translate(-89.75 -375.375)"/></svg>