<svg xmlns="http://www.w3.org/2000/svg" width="72" height="72" viewBox="0 0 72 72">
    <g fill="none" fill-rule="evenodd">
        <path fill="#FFEBE1" stroke="#FD7635" d="M70 .5c.414 0 .79.168 1.06.44.272.27.44.646.44 1.06h0v68c0 .414-.168.79-.44 1.06-.27.272-.646.44-1.06.44h0H2c-.414 0-.79-.168-1.06-.44C.667 70.79.5 70.415.5 70h0V2c0-.414.168-.79.44-1.06C1.21.667 1.585.5 2 .5h0z"/>
        <g fill="#FD7635">
            <text font-family="Helvetica" font-size="12" transform="translate(23 16)">
                <tspan x="1" y="36">FAQ</tspan>
            </text>
            <g fill-rule="nonzero">
                <path d="M23.089.004h-5.25c-.292 0-.528.236-.528.528 0 .292.236.529.528.529h5.25c1.574 0 2.854 1.28 2.854 2.854v8.879c0 1.573-1.28 2.854-2.854 2.854H19.99c-.14 0-.274.055-.373.153l-2.13 2.117v-1.742c0-.292-.237-.528-.529-.528H8.714c-1.574 0-2.854-1.28-2.854-2.854v-8.88c0-1.573 1.28-2.853 2.854-2.853h5.038c.292 0 .528-.237.528-.529 0-.292-.236-.528-.528-.528H8.714c-2.157 0-3.911 1.754-3.911 3.91v.52H3.91C1.754 4.435 0 6.19 0 8.347v9.407c0 2.156 1.754 3.91 3.911 3.91h2.881l2.877 2.86c.101.1.236.153.373.153.068 0 .137-.013.203-.04.197-.082.325-.275.325-.488v-2.484h7.717c2.156 0 3.91-1.755 3.91-3.911v-1.048h.892c2.157 0 3.911-1.755 3.911-3.911v-8.88c0-2.156-1.754-3.91-3.911-3.91zm-1.948 17.749c0 1.573-1.28 2.854-2.855 2.854h-8.244c-.292 0-.529.236-.529.528v1.743l-2.13-2.118c-.1-.098-.233-.153-.373-.153H3.911c-.107 0-.213-.007-.317-.018v-3.146c0-.291-.237-.528-.529-.528-.291 0-.528.237-.528.528v2.81c-.881-.486-1.48-1.424-1.48-2.5V8.346c0-1.574 1.28-2.854 2.854-2.854h.892v7.302c0 2.156 1.754 3.91 3.91 3.91h7.717v2.485c0 .213.128.406.325.487.066.028.135.041.203.041.137 0 .272-.053.373-.153l2.877-2.86h.933v1.049z" transform="translate(23 16)"/>
                <path d="M16.275.158C16.177.06 16.04.003 15.9.003c-.139 0-.275.057-.373.155-.099.099-.155.235-.155.374s.056.275.155.374c.098.098.234.155.373.155.14 0 .276-.057.374-.155.098-.099.155-.235.155-.374s-.057-.275-.155-.374zM17.724 11.11l-2.217-5.918c-.077-.207-.274-.344-.495-.344-.22 0-.417.137-.495.344l-2.216 5.919c-.102.273.036.578.31.68.06.023.123.034.185.034.214 0 .416-.131.495-.344l.782-2.087h1.879l.782 2.088c.102.273.406.412.68.31.273-.103.412-.408.31-.681zm-3.255-2.774l.543-1.452.544 1.452H14.47zM23.08 10.923l-.248-.248c.152-.294.24-.626.24-.979v-2.72c0-1.173-.956-2.128-2.13-2.128-1.173 0-2.128.955-2.128 2.129v2.72c0 1.173.955 2.128 2.129 2.128.438 0 .845-.133 1.184-.36l.205.205c.103.103.238.155.374.155.135 0 .27-.052.373-.155.207-.206.207-.54 0-.747zm-1.066-1.227c0 .05-.005.1-.011.148l-.36-.36c-.206-.207-.54-.207-.747-.001-.207.206-.207.54-.001.747l.456.457c-.126.052-.264.08-.408.08-.591 0-1.072-.48-1.072-1.07v-2.72c0-.591.481-1.072 1.072-1.072.59 0 1.071.48 1.071 1.072v2.72zM11.025 8.336H9.202V6.143c0-.13.107-.238.237-.238h1.586c.292 0 .528-.236.528-.528 0-.292-.236-.529-.528-.529H9.439c-.713 0-1.294.581-1.294 1.295v5.153c0 .292.237.529.529.529.292 0 .528-.237.528-.529V9.393h1.823c.291 0 .528-.236.528-.528 0-.292-.236-.529-.528-.529zM3.439 15.088c-.098-.099-.235-.155-.374-.155s-.275.056-.373.155c-.099.098-.155.234-.155.373 0 .14.056.276.155.374.098.098.234.155.373.155.14 0 .276-.057.374-.155.098-.098.155-.235.155-.374s-.057-.275-.155-.373z" transform="translate(23 16)"/>
            </g>
        </g>
    </g>
</svg>
