<svg xmlns="http://www.w3.org/2000/svg" width="72" height="72" viewBox="0 0 72 72">
    <g fill="none" fill-rule="evenodd">
        <path fill="#FFEBE1" stroke="#FD7635" d="M70 .5c.414 0 .79.168 1.06.44.272.27.44.646.44 1.06h0v68c0 .414-.168.79-.44 1.06-.27.272-.646.44-1.06.44h0H2c-.414 0-.79-.168-1.06-.44C.667 70.79.5 70.415.5 70h0V2c0-.414.168-.79.44-1.06C1.21.667 1.585.5 2 .5h0z"/>
        <text fill="#FD7635" font-family="Helvetica" font-size="12">
            <tspan x="9.65" y="45">Operating</tspan> <tspan x="20.326" y="59">Notes</tspan>
        </text>
        <g fill="#FD7635" fill-rule="nonzero">
            <path d="M26 8.612c0-1.049-.853-1.902-1.902-1.902-.508 0-.986.198-1.345.557L21.51 8.51l-1.381 1.38V5.838c1.42-.204 2.516-1.426 2.516-2.902C22.645 1.317 21.328 0 19.71 0H2.935C1.317 0 0 1.317 0 2.935v20.968c0 .232.188.42.42.42h2.096v1.258c0 .231.188.419.42.419H19.71c.231 0 .419-.188.419-.42V15.27l4.07-4.07.431-.431c-.217 1.082-.746 2.077-1.544 2.875l-1.995 1.995.593.593 1.995-1.995c1.19-1.19 1.856-2.762 1.895-4.44.27-.336.426-.746.426-1.185zm-2.654-.752c.2-.2.468-.312.752-.312.586 0 1.063.478 1.063 1.064 0 .284-.11.55-.311.752l-.947.946L22.4 8.806l.947-.946zm-1.54 1.54l.456.455-5.278 5.278-.456-.456L21.806 9.4zm-9.973 11.066l.863-1.726 1.274 1.274-1.726.863-.411-.411zm1.34-2.434l2.762-2.762 1.504 1.504-2.762 2.762-1.503-1.504zM19.71.84c1.156 0 2.096.94 2.096 2.096 0 1.157-.94 2.097-2.096 2.097H4.986c.545-.533.885-1.275.885-2.097 0-.82-.34-1.563-.885-2.096H19.71zM3.355 4.989V3.775c0-.23.188-.42.42-.42H4.99c-.167.821-.815 1.469-1.635 1.636zM.839 23.485V2.935C.839 1.78 1.779.84 2.935.84c1.013 0 1.86.721 2.055 1.677H3.774c-.693 0-1.258.565-1.258 1.258v19.71H.84zM19.29 25.16H3.355V5.871H19.29v4.859l-1.85 1.85H5.031v.84h11.569l-.84.838H5.033v.839h9.891l-2.639 2.639c-.033.032-.054.071-.074.11l-.004-.002-1.258 2.517c-.08.161-.05.356.079.483l.122.124-.962.961.593.593.962-.961.123.123c.08.08.188.122.296.122.064 0 .128-.014.188-.044l2.516-1.258-.003-.004c.04-.02.079-.041.111-.074l3.355-3.355.962-.962v9.052zm-1.258-8.98l-.455-.455 5.278-5.278.455.455-5.278 5.278z" transform="translate(26 9)"/>
            <path d="M5 8L18 8 18 9 5 9zM5 10L18 10 18 11 5 11zM10 22L18 22 18 23 10 23z" transform="translate(26 9)"/>
            <g>
                <path d="M5.784 2.142h-.363c-.03-.085-.064-.168-.103-.25l.257-.257c.084-.084.084-.22 0-.303l-.91-.908c-.083-.084-.219-.084-.302 0l-.258.257c-.08-.039-.164-.074-.249-.104V.214C3.856.096 3.76 0 3.642 0H2.356c-.118 0-.214.096-.214.214v.363c-.085.03-.169.064-.25.103L1.635.423c-.084-.084-.22-.084-.303 0l-.908.91c-.084.084-.084.22 0 .303l.257.257c-.04.081-.074.164-.104.25H.214c-.118 0-.214.095-.214.213v1.286c0 .118.096.214.214.214h.363c.03.085.064.169.103.25l-.257.257c-.084.084-.084.22 0 .303l.91.91c.083.083.218.083.302 0l.257-.258c.082.039.165.073.25.103v.363c0 .118.096.214.214.214h1.286c.118 0 .214-.096.214-.214v-.363c.085-.03.169-.064.25-.103l.258.257c.083.084.219.084.302 0l.91-.909c.083-.083.083-.219 0-.303l-.258-.257c.04-.081.074-.165.103-.25h.363c.118 0 .214-.096.214-.214V2.356c0-.118-.096-.214-.214-.214zM5.57 3.428h-.305c-.096 0-.18.063-.206.155-.045.16-.109.314-.19.46-.047.084-.033.189.036.257l.214.215-.605.605-.215-.214c-.068-.069-.173-.083-.257-.036-.146.081-.3.145-.46.19-.092.026-.155.11-.155.206v.304H2.57v-.305c0-.096-.064-.18-.156-.206-.16-.046-.314-.11-.46-.19-.083-.047-.188-.033-.256.036l-.215.214-.606-.605.215-.215c.068-.068.082-.173.035-.257-.08-.146-.144-.3-.19-.46-.026-.091-.11-.154-.204-.154H.428V2.57h.306c.096 0 .18-.064.206-.156.045-.16.108-.314.19-.46.046-.083.032-.188-.036-.256l-.215-.215.605-.606.215.215c.068.068.173.082.257.035.145-.08.299-.144.459-.19.092-.025.155-.109.156-.204V.428h.857v.306c0 .096.063.18.156.206.16.045.314.108.459.19.084.046.189.032.257-.036l.215-.215.605.605-.214.215c-.069.068-.083.173-.036.257.081.145.145.299.19.459.026.092.11.156.206.156h.304v.857z" transform="translate(26 9) translate(5 16)"/>
                <path d="M3 1.5c-.829 0-1.5.671-1.5 1.5 0 .827.671 1.499 1.5 1.499.827 0 1.499-.672 1.499-1.5-.001-.828-.672-1.498-1.5-1.5zm0 2.57c-.592 0-1.072-.48-1.072-1.07 0-.592.48-1.072 1.071-1.072.592 0 1.071.48 1.071 1.071S3.59 4.07 3 4.07z" transform="translate(26 9) translate(5 16)"/>
            </g>
        </g>
    </g>
</svg>
