<svg xmlns="http://www.w3.org/2000/svg" width="72" height="72" viewBox="0 0 72 72">
    <g fill="none" fill-rule="evenodd">
        <path fill="#EFEFEF" stroke="#DEDEDE" d="M70 .5c.414 0 .79.168 1.06.44.272.27.44.646.44 1.06h0v68c0 .414-.168.79-.44 1.06-.27.272-.646.44-1.06.44h0H2c-.414 0-.79-.168-1.06-.44C.667 70.79.5 70.415.5 70h0V2c0-.414.168-.79.44-1.06C1.21.667 1.585.5 2 .5h0z"/>
        <path fill="#222A30" fill-rule="nonzero" d="M50.782 20H44.81v1.02h.597c.467 0 .888.24 1.127.642.238.401.247.885.024 1.295L40.133 34.75l-2.926-6.975 2.756-5.057c.57-1.046 1.665-1.697 2.857-1.697h.326V20h-6.169v1.02h.597c.467 0 .888.24 1.126.642.239.401.248.885.025 1.295l-2 3.67-1.78-4.247c-.13-.308-.098-.644.087-.922s.482-.438.816-.438h.653V20h-7.302v1.02H29.49c1.363 0 2.584.813 3.112 2.07l2.632 6.274-2.933 5.385-5.19-12.37c-.128-.307-.096-.643.089-.921.184-.278.482-.438.816-.438h.897V20H21v1.02h.658c1.363 0 2.584.813 3.111 2.07l5.982 14.259c.104.25.347.41.618.41.248 0 .468-.13.587-.349l.78-1.432 2.98-5.466 2.867 6.837c.105.249.347.41.618.41.249 0 .468-.13.587-.35l.78-1.43 7.227-13.262c.57-1.047 1.665-1.697 2.857-1.697h.326V20h-.196z"/>
        <text fill="#000" font-family="Helvetica" font-size="12">
            <tspan x="23" y="55">Wiki</tspan>
        </text>
    </g>
</svg>
