<svg xmlns="http://www.w3.org/2000/svg" width="11.25" height="15" viewBox="0 0 11.25 15"><defs><style>.a{fill:#666;}</style></defs><g transform="translate(-14 -8)"><path class="a" d="M19.442,10.371,17.255,8.183a.625.625,0,0,0-.884,0l-2.187,2.187a.625.625,0,0,0,.884.884l1.121-1.121V22.375a.625.625,0,0,0,1.25,0V10.134l1.121,1.121a.625.625,0,1,0,.884-.884Z" transform="translate(0 0)"/><path class="a" d="M37.442,19.746a.625.625,0,0,0-.884,0l-1.121,1.121V8.625a.625.625,0,0,0-1.25,0V20.866l-1.121-1.121a.625.625,0,1,0-.884.884l2.188,2.188a.625.625,0,0,0,.884,0l2.188-2.188a.625.625,0,0,0,0-.884Z" transform="translate(-12.375)"/></g></svg>