<svg xmlns="http://www.w3.org/2000/svg" xmlns:xlink="http://www.w3.org/1999/xlink" width="19" height="19" viewBox="0 0 19 19">
    <defs>
        <path id="prefix__a" d="M16 8L16 1 3 1 3 8 3 15 16 15 16 8z"/>
    </defs>
    <g fill="none" fill-rule="evenodd">
        <circle cx="9.5" cy="9.5" r="9.5" fill="#44D7B6"/>
        <mask id="prefix__b" fill="#fff">
            <use xlink:href="#prefix__a"/>
        </mask>
        <path fill="#FFF" d="M14 8.493c0-.446-.332-.803-.75-.834l.004-.025s-1.242.002-2.702 0c-.005-.516 1.044-1.43.332-3.11l-.002-.004c-.113-.304-.387-.52-.713-.52-.416 0-.75.351-.764.788-.001.002-.011.008-.011.008v.82L7.077 8.441v5.245h4.982c.012 0 .02.006.032.006.01 0 .02-.005.03-.006h.01l.001-.002c.41-.024.739-.371.739-.805 0-.17-.062-.318-.146-.45.306-.106.53-.401.53-.762 0-.323-.181-.598-.44-.729.443-.01.8-.381.8-.842 0-.345-.2-.64-.487-.772.023.003.043.015.067.015.445 0 .805-.379.805-.846zm-9 5.2h1.385v-5.54H5v5.54z" mask="url(#prefix__b)"/>
    </g>
</svg>
