<svg xmlns="http://www.w3.org/2000/svg" width="19" height="20" viewBox="0 0 19 20">
    <path className='ma-main' d="M11.12 15.023l-4.199-2.29c-1.122 1.2-2.863 1.591-4.39.988C1.003 13.118 0 11.643 0 10.001 0 8.357 1.003 6.883 2.53 6.28c1.528-.603 3.27-.211 4.391.988l4.2-2.29c-.493-1.953.542-3.968 2.418-4.703 1.875-.736 4.004.038 4.97 1.805.966 1.768.467 3.978-1.165 5.159-1.632 1.18-3.887.964-5.264-.506l-4.2 2.29c.161.641.161 1.313 0 1.954l4.199 2.29c1.377-1.47 3.632-1.687 5.264-.506 1.632 1.181 2.131 3.391 1.165 5.159-.966 1.767-3.095 2.541-4.97 1.805-1.876-.735-2.911-2.75-2.418-4.703v.001zM4 12c1.105 0 2-.895 2-2s-.895-2-2-2-2 .895-2 2 .895 2 2 2zm11-6c1.105 0 2-.895 2-2s-.895-2-2-2-2 .895-2 2 .895 2 2 2zm0 12c1.105 0 2-.895 2-2s-.895-2-2-2-2 .895-2 2 .895 2 2 2z"/>
</svg>
