<svg xmlns="http://www.w3.org/2000/svg" width="80" height="89" viewBox="0 0 80 89">
    <g fill="none" fill-rule="evenodd">
        <path fill="#FFBFAB" d="M69.565 55.791c2.882 0 5.218 2.327 5.218 5.198 0 2.87-2.338 5.198-5.218 5.198h-2.26l-.034.137c2.312.532 4.033 2.595 4.033 5.06 0 2.87-2.337 5.199-5.217 5.199h-3.478c2.881 0 5.217 2.327 5.217 5.198 0 2.87-2.336 5.198-5.217 5.198H43.906c-9.525 0-12.057-1.165-21.297-3.466V48.86c.184-.143 27.826-5.176 27.826-21.83v-1.733c0-2.871 2.335-5.198 5.217-5.198 2.878 0 5.212 2.321 5.218 5.189.034 0 1.123 10.938-3.479 20.107h15.652c2.882 0 5.218 2.327 5.218 5.198 0 2.87-2.338 5.198-5.218 5.198h-3.478z"/>
        <path fill="#42D7B6" d="M22.609 48.86v34.653c0 1.915-1.557 3.466-3.479 3.466H1.74V45.395h17.39c1.922 0 3.479 1.55 3.479 3.465"/>
        <path fill="#000" d="M57.391 9.703v-7.97C57.391.776 56.613 0 55.652 0c-.96 0-1.739.776-1.739 1.733v7.97c0 .957.779 1.732 1.74 1.732.96 0 1.738-.775 1.738-1.732M15.652 54.058c-.96 0-1.739.777-1.739 1.733 0 .956.78 1.733 1.74 1.733s1.738-.777 1.738-1.733c0-.956-.779-1.733-1.739-1.733"/>
        <path fill="#000" d="M73.043 54.058h-8.695c-.96 0-1.74.776-1.74 1.733 0 .957.78 1.733 1.74 1.733h5.217c1.918 0 3.478 1.554 3.478 3.465 0 1.914-1.557 3.465-3.478 3.465H60.87c-.96 0-1.74.776-1.74 1.733 0 .957.78 1.733 1.74 1.733h5.217c1.895 0 3.478 1.508 3.478 3.465 0 1.914-1.557 3.465-3.478 3.465h-8.696c-.96 0-1.739.776-1.739 1.733 0 .957.779 1.732 1.74 1.732h5.217c1.918 0 3.478 1.555 3.478 3.466 0 1.91-1.56 3.465-3.478 3.465H43.906c-7.688 0-10.69-.781-16.673-2.338-.876-.228-1.838-.478-2.885-.744V50.251c12.586-2.987 27.826-10.277 27.826-23.222v-1.732c0-1.911 1.56-3.466 3.478-3.466 1.915 0 3.475 1.552 3.478 3.46v.006c0 .753.944 9.994-2.839 18.366h-5.856c-.96 0-1.74.775-1.74 1.732s.78 1.733 1.74 1.733h22.608c1.918 0 3.479 1.554 3.479 3.465 0 1.914-1.557 3.465-3.479 3.465zM20.87 83.513c0 .956-.78 1.733-1.74 1.733H3.478V47.128H19.13c.96 0 1.74.777 1.74 1.732v34.653zm52.173-39.85H60.061c2.01-5.13 2.823-11.167 2.666-16.54-.03-1.026-.07-1.62-.123-1.993-.09-3.744-3.175-6.764-6.952-6.764-3.836 0-6.956 3.109-6.956 6.93v1.733c0 10.958-14.125 17.115-24.784 19.756-.806-1.836-2.645-3.122-4.782-3.122H1.74c-.961 0-1.74.775-1.74 1.732V86.98c0 .956.779 1.732 1.74 1.732h17.39c2.123 0 3.952-1.27 4.766-3.085.882.225 1.702.438 2.458.635 6.072 1.58 9.417 2.45 17.552 2.45H62.61c3.836 0 6.956-3.109 6.956-6.93 0-1.425-.434-2.75-1.177-3.853 2.686-.937 4.655-3.494 4.655-6.543 0-1.42-.423-2.75-1.164-3.857 2.675-.938 4.643-3.49 4.643-6.539 0-1.425-.435-2.75-1.178-3.853C78.031 56.2 80 53.642 80 50.593c0-3.821-3.12-6.93-6.957-6.93z"/>
        <path fill="#000" d="M15.652 60.989c-.96 0-1.739.776-1.739 1.733v13.86c0 .958.779 1.733 1.74 1.733.96 0 1.738-.775 1.738-1.732V62.722c0-.957-.778-1.733-1.739-1.733M33.043 23.564c0 .957.78 1.733 1.74 1.733h6.956c.96 0 1.74-.776 1.74-1.733 0-.957-.78-1.733-1.74-1.733h-6.956c-.96 0-1.74.776-1.74 1.733M67.826 23.564c0 .957.779 1.733 1.74 1.733h6.956c.96 0 1.739-.776 1.739-1.733 0-.957-.779-1.733-1.74-1.733h-6.956c-.96 0-1.739.776-1.739 1.733M69.179 7.637l-4.918 4.9c-.68.677-.68 1.774 0 2.45.68.677 1.78.677 2.46 0l4.917-4.9c.68-.676.68-1.773 0-2.45-.679-.676-1.78-.676-2.46 0M47.044 14.988c.679-.677.679-1.774 0-2.451l-4.918-4.9c-.68-.676-1.78-.676-2.46 0-.68.677-.68 1.774 0 2.45l4.918 4.9c.68.677 1.78.677 2.46 0"/>
    </g>
</svg>
