<svg xmlns="http://www.w3.org/2000/svg" xmlns:xlink="http://www.w3.org/1999/xlink" width="92" height="71" viewBox="0 0 92 71">
    <defs>
        <path id="prefix__a" d="M0 0.035L35.587 0.035 35.587 65.371 0 65.371z"/>
    </defs>
    <g fill="none" fill-rule="evenodd">
        <g transform="translate(0 2.336)">
            <mask id="prefix__b" fill="#fff">
                <use xlink:href="#prefix__a"/>
            </mask>
            <path fill="#FEA832" d="M2.37.035C.908 1.499 0 3.521 0 5.75v53.906c0 2.23.907 4.251 2.37 5.715l4.116-1.42 29.1-29.1-.547-2.148.346-2.35L8.254 3.224 2.37.034z" mask="url(#prefix__b)"/>
        </g>
        <path fill="#FE9923" d="M56.96 35.04l-.449 2.244 27.933 27.934 5.185 2.49C91.093 66.242 92 64.221 92 61.991V8.086c0-2.23-.907-4.25-2.371-5.715l-4.746 2.051-28.554 28.554.632 2.063z"/>
        <path fill="#FC3" d="M89.628 67.706c-1.455 1.456-3.504 2.372-5.714 2.372H8.086c-2.21 0-4.259-.916-5.715-2.372L35.04 35.04l1.617-1.078 5.511 5.303c2.229 2.144 5.763 2.11 7.95-.076l4.472-4.472 2.372.323 32.667 32.667z"/>
        <path fill="#FEA832" d="M89.628 67.706L56.961 35.04l-2.372-.323-4.472 4.472c-1.133 1.133-2.629 1.687-4.117 1.66v29.23h37.914c2.21 0 4.259-.916 5.714-2.372"/>
        <path fill="#FEDB41" d="M89.628 2.372L50.177 41.823c-2.21 2.21-5.792 2.218-8.011.017L2.371 2.372C3.827.916 5.876 0 8.086 0h75.828c2.21 0 4.259.916 5.714 2.372"/>
        <path fill="#FC3" d="M83.914 0H46v43.482c1.507.043 3.027-.51 4.177-1.659L89.628 2.372C88.173.916 86.124 0 83.914 0"/>
    </g>
</svg>
