<svg xmlns="http://www.w3.org/2000/svg" xmlns:xlink="http://www.w3.org/1999/xlink" width="84" height="80" viewBox="0 0 84 80">
    <defs>
        <path id="prefix__a" d="M0.054 0L38.096 0 38.096 65.709 0.054 65.709z"/>
        <path id="prefix__c" d="M0.054 0L38.096 0 38.096 3.459 0.054 3.459z"/>
        <path id="prefix__e" d="M0.054 0L38.096 0 38.096 3.459 0.054 3.459z"/>
        <path id="prefix__g" d="M0.054 0L38.096 0 38.096 3.459 0.054 3.459z"/>
        <path id="prefix__i" d="M0.054 0L38.096 0 38.096 3.459 0.054 3.459z"/>
        <path id="prefix__k" d="M0.054 0L38.096 0 38.096 3.459 0.054 3.459z"/>
    </defs>
    <g fill="none" fill-rule="evenodd">
        <path fill="#4CAF50" d="M47.767.387c-.41-.333-.95-.46-1.467-.346L1.342 10.416c-.791.182-1.35.89-1.342 1.702V70.91c0 .853.623 1.578 1.466 1.708l44.959 6.917c.944.145 1.826-.502 1.972-1.446.013-.087.02-.175.02-.262V1.743c.001-.527-.238-1.027-.65-1.356"/>
        <g transform="translate(44.904 6.93)">
            <mask id="prefix__b" fill="#fff">
                <use xlink:href="#prefix__a"/>
            </mask>
            <path fill="#4CAF50" d="M36.367 65.709H1.783c-.955 0-1.729-.775-1.729-1.73s.774-1.729 1.73-1.729h32.854V3.46H1.783c-.955 0-1.729-.775-1.729-1.73S.828 0 1.784 0h34.583c.955 0 1.729.774 1.729 1.73v62.25c0 .954-.774 1.729-1.73 1.729" mask="url(#prefix__b)"/>
        </g>
        <path fill="#FAFAFA" d="M32.854 55.347c-.596 0-1.15-.307-1.466-.812L14.096 26.868c-.531-.794-.319-1.868.474-2.4.794-.53 1.868-.318 2.4.475l.059.095 17.292 27.667c.504.811.255 1.877-.556 2.381-.273.17-.589.26-.91.261"/>
        <path fill="#FAFAFA" d="M15.563 55.347c-.955-.002-1.728-.777-1.726-1.732 0-.323.092-.64.263-.913L31.39 25.035c.48-.826 1.537-1.108 2.363-.63.827.48 1.108 1.538.63 2.364l-.06.095-17.292 27.667c-.315.508-.871.817-1.47.816"/>
        <path fill="#4CAF50" d="M60.521 72.639c-.955 0-1.73-.775-1.73-1.73V8.66c0-.954.775-1.729 1.73-1.729s1.73.775 1.73 1.73v62.25c0 .955-.775 1.729-1.73 1.729"/>
        <g transform="translate(44.904 58.805)">
            <mask id="prefix__d" fill="#fff">
                <use xlink:href="#prefix__c"/>
            </mask>
            <path fill="#4CAF50" d="M36.367 3.459H1.783c-.955 0-1.729-.775-1.729-1.73S.828 0 1.784 0h34.583c.955 0 1.729.774 1.729 1.73 0 .954-.774 1.729-1.73 1.729" mask="url(#prefix__d)"/>
        </g>
        <g transform="translate(44.904 48.43)">
            <mask id="prefix__f" fill="#fff">
                <use xlink:href="#prefix__e"/>
            </mask>
            <path fill="#4CAF50" d="M36.367 3.459H1.783c-.955 0-1.729-.775-1.729-1.73S.828 0 1.784 0h34.583c.955 0 1.729.774 1.729 1.73 0 .954-.774 1.729-1.73 1.729" mask="url(#prefix__f)"/>
        </g>
        <g transform="translate(44.904 38.055)">
            <mask id="prefix__h" fill="#fff">
                <use xlink:href="#prefix__g"/>
            </mask>
            <path fill="#4CAF50" d="M36.367 3.459H1.783c-.955 0-1.729-.775-1.729-1.73S.828 0 1.784 0h34.583c.955 0 1.729.774 1.729 1.73 0 .954-.774 1.729-1.73 1.729" mask="url(#prefix__h)"/>
        </g>
        <g transform="translate(44.904 27.68)">
            <mask id="prefix__j" fill="#fff">
                <use xlink:href="#prefix__i"/>
            </mask>
            <path fill="#4CAF50" d="M36.367 3.459H1.783c-.955 0-1.729-.775-1.729-1.73S.828 0 1.784 0h34.583c.955 0 1.729.774 1.729 1.73 0 .954-.774 1.729-1.73 1.729" mask="url(#prefix__j)"/>
        </g>
        <g transform="translate(44.904 17.305)">
            <mask id="prefix__l" fill="#fff">
                <use xlink:href="#prefix__k"/>
            </mask>
            <path fill="#4CAF50" d="M36.367 3.459H1.783c-.955 0-1.729-.775-1.729-1.73S.828 0 1.784 0h34.583c.955 0 1.729.774 1.729 1.73 0 .954-.774 1.729-1.73 1.729" mask="url(#prefix__l)"/>
        </g>
    </g>
</svg>
