<svg xmlns="http://www.w3.org/2000/svg" xmlns:xlink="http://www.w3.org/1999/xlink" width="58" height="76" viewBox="0 0 58 76">
    <defs>
        <path id="prefix__a" d="M0.001 0L58 0 58 75.535 0.001 75.535z"/>
        <path id="prefix__c" d="M0 0L58 0 58 22.93 0 22.93z"/>
    </defs>
    <g fill="none" fill-rule="evenodd">
        <mask id="prefix__b" fill="#fff">
            <use xlink:href="#prefix__a"/>
        </mask>
        <path fill="#E9E9E0" d="M41.12 0H1.974C.883 0 0 .883 0 2.598v71.588c0 .465.882 1.349 1.973 1.349h54.053c1.089 0 1.974-.884 1.974-1.349v-56.68c0-.94-.126-1.242-.347-1.464L41.959.347C41.736.125 41.433 0 41.119 0" mask="url(#prefix__b)"/>
        <path fill="#D9D7CA" d="M41.814 0.204L41.814 16.186 57.796 16.186z"/>
        <path fill="#F3D55B" d="M16.768 13.302c3.403 0 6.163 2.76 6.163 6.163 0 3.404-2.76 6.163-6.163 6.163-3.403 0-6.163-2.759-6.163-6.163 0-3.403 2.76-6.163 6.163-6.163"/>
        <path fill="#26B99A" d="M0 52.605L14.837 52.605 58 52.605 58 37.767 44.512 24.953 30.349 40.465 22.953 33.069z"/>
        <g transform="translate(0 52.605)">
            <mask id="prefix__d" fill="#fff">
                <use xlink:href="#prefix__c"/>
            </mask>
            <path fill="#14A085" d="M56.027 22.93H1.973C.883 22.93 0 22.047 0 20.957V0h58v20.957c0 1.09-.883 1.973-1.973 1.973" mask="url(#prefix__d)"/>
        </g>
        <path fill="#FFF" d="M20.132 57.528v10.586c0 .638-.117 1.178-.35 1.613-.234.435-.548.787-.94 1.05-.394.265-.846.449-1.356.553-.511.106-1.036.159-1.577.159-.27 0-.588-.03-.95-.084-.362-.055-.737-.14-1.124-.257-.387-.118-.76-.251-1.116-.397-.357-.148-.658-.314-.903-.498l.94-1.494c.122.086.298.177.526.267.226.093.476.178.747.259.27.08.553.148.848.212.296.062.572.09.83.09.651 0 1.17-.125 1.558-.378.387-.25.592-.68.618-1.28v-10.4h2.25zM25.647 59.483v5.385h2.029c.27 0 .537-.046.802-.138.265-.093.507-.244.729-.452.22-.21.399-.5.534-.876.135-.375.202-.84.202-1.392 0-.222-.03-.477-.092-.764-.062-.289-.187-.565-.377-.83-.192-.265-.459-.486-.803-.664-.345-.18-.8-.269-1.365-.269h-1.659zm0 11.913h-2.213v-13.59h3.909c.577 0 1.149.09 1.714.274.565.187 1.072.463 1.521.83.45.37.812.816 1.088 1.337.276.522.416 1.11.416 1.761 0 .69-.117 1.314-.35 1.874-.235.56-.56 1.029-.978 1.41-.418.381-.923.676-1.512.884-.59.21-1.243.313-1.955.313h-1.641v4.907h.001zM44.512 64.388v5.256c-.284.357-.6.647-.95.875-.35.228-.719.415-1.106.562-.387.146-.786.251-1.2.312-.412.065-.82.096-1.225.096-.812 0-1.558-.149-2.24-.443-.683-.295-1.28-.73-1.79-1.31-.509-.578-.91-1.302-1.198-2.175-.289-.873-.433-1.882-.433-3.025 0-1.142.144-2.148.433-3.014.288-.868.688-1.59 1.199-2.166.51-.579 1.109-1.017 1.798-1.32.688-.303 1.432-.451 2.23-.451.739 0 1.427.123 2.066.368.64.247 1.21.615 1.714 1.106l-1.53 1.365c-.296-.357-.635-.616-1.015-.775-.382-.158-.774-.24-1.18-.24-.455 0-.89.086-1.3.259-.413.172-.782.464-1.107.874-.326.414-.58.944-.764 1.597-.184.651-.284 1.448-.296 2.395.012.924.108 1.723.286 2.398.178.676.424 1.23.738 1.658.314.432.67.751 1.07.96.399.208.82.313 1.263.313.135 0 .316-.009.544-.028.227-.02.455-.048.683-.092.226-.043.445-.1.654-.175.209-.076.363-.178.461-.314v-3.355h-2.305v-1.512h4.5v.001z"/>
    </g>
</svg>
