<svg xmlns="http://www.w3.org/2000/svg" xmlns:xlink="http://www.w3.org/1999/xlink" width="83" height="79" viewBox="0 0 83 79">
    <defs>
        <path id="prefix__a" d="M0.054 0L38 0 38 65.892 0.054 65.892z"/>
    </defs>
    <g fill="none" fill-rule="evenodd">
        <path fill="#1565C0" d="M47.356.384c-.407-.33-.943-.457-1.454-.343L1.33 10.344c-.784.18-1.337.883-1.33 1.69v58.38c0 .848.618 1.569 1.454 1.697l44.571 6.869c.936.144 1.811-.499 1.955-1.436.013-.086.02-.173.02-.26V1.73c.002-.524-.236-1.02-.644-1.347"/>
        <g transform="translate(45 7)">
            <mask id="prefix__b" fill="#fff">
                <use xlink:href="#prefix__a"/>
            </mask>
            <path fill="#1565C0" d="M36.275 65.892H1.78c-.953 0-1.725-.777-1.725-1.734 0-.958.772-1.734 1.725-1.734H34.55V3.468H1.78c-.953 0-1.725-.776-1.725-1.734S.826 0 1.779 0h34.496C37.228 0 38 .777 38 1.734v62.424c0 .958-.772 1.734-1.725 1.734" mask="url(#prefix__b)"/>
        </g>
        <path fill="#FAFAFA" d="M29.392 55c-.767 0-1.44-.517-1.652-1.265l-5.233-18.581-5.232 18.581c-.378.927-1.425 1.368-2.339.984-.44-.184-.788-.538-.97-.984L7.081 29.277c-.288-.92.213-1.902 1.12-2.194.905-.293 1.873.216 2.161 1.135.01.032.02.065.028.098l5.232 18.578 5.233-18.581c.378-.927 1.425-1.368 2.339-.985.439.185.788.539.97.985l5.228 18.58 5.233-18.577c.248-.92 1.183-1.46 2.089-1.21l.039.012c.913.265 1.441 1.232 1.18 2.159l-6.885 24.458c-.212.75-.887 1.266-1.656 1.265"/>
        <path fill="#1565C0" d="M74.278 21H46.722c-.95 0-1.722-.895-1.722-2s.771-2 1.722-2h27.556c.95 0 1.722.895 1.722 2s-.771 2-1.722 2M74.278 31H46.722c-.95 0-1.722-.895-1.722-2s.771-2 1.722-2h27.556c.95 0 1.722.895 1.722 2s-.771 2-1.722 2M74.278 41H46.722c-.95 0-1.722-.895-1.722-2s.771-2 1.722-2h27.556c.95 0 1.722.895 1.722 2s-.771 2-1.722 2M74.278 52H46.722c-.95 0-1.722-.895-1.722-2s.771-2 1.722-2h27.556c.95 0 1.722.895 1.722 2s-.771 2-1.722 2M74.278 62H46.722c-.95 0-1.722-.895-1.722-2s.771-2 1.722-2h27.556c.95 0 1.722.895 1.722 2s-.771 2-1.722 2"/>
    </g>
</svg>
