<svg xmlns="http://www.w3.org/2000/svg" xmlns:xlink="http://www.w3.org/1999/xlink" width="83" height="84" viewBox="0 0 83 84">
    <defs>
        <path id="prefix__a" d="M0 0L74.414 0 74.414 18.603 0 18.603z"/>
        <path id="prefix__c" d="M0.034 0.011L20.068 0.011 20.068 17.184 0.034 17.184z"/>
    </defs>
    <g fill="none" fill-rule="evenodd">
        <path fill="#F0C419" d="M83 27.19v41.5c0 4.742-3.844 8.586-8.586 8.586H8.586C3.844 77.276 0 73.432 0 68.69V5.724C0 2.563 2.563 0 5.724 0h31.483c3.161 0 5.724 2.563 5.724 5.724v2.862H68.69c3.161 0 5.724 2.563 5.724 5.724v4.294c4.739.007 8.579 3.847 8.586 8.586"/>
        <mask id="prefix__b" fill="#fff">
            <use xlink:href="#prefix__a"/>
        </mask>
        <path fill="#F29C1F" d="M74.414 14.31v4.293H0V5.724C0 2.563 2.563 0 5.724 0h31.483c3.161 0 5.724 2.563 5.724 5.724v2.862H68.69c3.161 0 5.724 2.563 5.724 5.724" mask="url(#prefix__b)"/>
        <path fill="#E57E25" d="M25.759 18.603h-5.724c-.79 0-1.432-.64-1.432-1.43 0-.79.641-1.432 1.432-1.432h5.724c.79 0 1.43.641 1.43 1.431s-.64 1.431-1.43 1.431"/>
        <path fill="#547580" d="M41.5 58.672c-.79 0-1.431-.64-1.431-1.43V18.602c0-.79.64-1.43 1.431-1.43.79 0 1.43.64 1.43 1.43v38.638c0 .79-.64 1.431-1.43 1.431"/>
        <path fill="#7F8C8D" d="M37.207 25.759h-1.431c-.79 0-1.431-.641-1.431-1.431s.64-1.431 1.43-1.431h1.432c.79 0 1.431.64 1.431 1.43 0 .791-.64 1.432-1.431 1.432M37.207 31.483h-1.431c-.79 0-1.431-.64-1.431-1.431 0-.79.64-1.431 1.43-1.431h1.432c.79 0 1.431.64 1.431 1.43 0 .791-.64 1.432-1.431 1.432M37.207 37.207h-1.431c-.79 0-1.431-.64-1.431-1.431 0-.79.64-1.431 1.43-1.431h1.432c.79 0 1.431.64 1.431 1.43 0 .791-.64 1.432-1.431 1.432M37.207 42.931h-1.431c-.79 0-1.431-.64-1.431-1.431 0-.79.64-1.431 1.43-1.431h1.432c.79 0 1.431.64 1.431 1.431 0 .79-.64 1.431-1.431 1.431M37.207 48.655h-1.431c-.79 0-1.431-.64-1.431-1.43 0-.791.64-1.432 1.43-1.432h1.432c.79 0 1.431.64 1.431 1.431 0 .79-.64 1.431-1.431 1.431M37.207 54.38h-1.431c-.79 0-1.431-.641-1.431-1.432 0-.79.64-1.43 1.43-1.43h1.432c.79 0 1.431.64 1.431 1.43 0 .79-.64 1.431-1.431 1.431M47.224 28.62h-1.43c-.791 0-1.432-.64-1.432-1.43 0-.79.64-1.431 1.431-1.431h1.431c.79 0 1.431.64 1.431 1.43 0 .791-.64 1.432-1.43 1.432M47.224 34.345h-1.43c-.791 0-1.432-.641-1.432-1.431s.64-1.431 1.431-1.431h1.431c.79 0 1.431.64 1.431 1.43 0 .791-.64 1.432-1.43 1.432M47.224 40.069h-1.43c-.791 0-1.432-.64-1.432-1.431 0-.79.64-1.431 1.431-1.431h1.431c.79 0 1.431.64 1.431 1.43 0 .791-.64 1.432-1.43 1.432M47.224 45.793h-1.43c-.791 0-1.432-.64-1.432-1.43 0-.791.64-1.432 1.431-1.432h1.431c.79 0 1.431.64 1.431 1.431 0 .79-.64 1.431-1.43 1.431M47.224 51.517h-1.43c-.791 0-1.432-.64-1.432-1.43 0-.791.64-1.432 1.431-1.432h1.431c.79 0 1.431.64 1.431 1.431 0 .79-.64 1.431-1.43 1.431"/>
        <g transform="translate(31.45 65.816)">
            <mask id="prefix__d" fill="#fff">
                <use xlink:href="#prefix__c"/>
            </mask>
            <path fill="#7F8C8D" d="M14.344.011l5.504 13.21c.368.883.27 1.892-.26 2.688-.532.796-1.425 1.275-2.382 1.275H2.896c-.957 0-1.85-.479-2.381-1.275-.531-.796-.63-1.805-.261-2.688L5.758.011h8.586z" mask="url(#prefix__d)"/>
        </g>
        <path fill="#547580" d="M42.931 78.707h-2.862c-.79 0-1.431-.64-1.431-1.431 0-.79.64-1.431 1.43-1.431h2.863c.79 0 1.431.64 1.431 1.43 0 .791-.64 1.432-1.431 1.432"/>
        <path fill="#E57E25" d="M74.414 15.741v2.862h-41.5c-.79 0-1.431-.64-1.431-1.43 0-.791.64-1.432 1.43-1.432h41.5z"/>
        <path fill="#95A5A5" d="M37.207 57.241h8.586c.79 0 1.431.641 1.431 1.431v5.725c0 .79-.64 1.43-1.431 1.43h-8.586c-.79 0-1.431-.64-1.431-1.43v-5.725c0-.79.64-1.43 1.43-1.43"/>
    </g>
</svg>
