<svg xmlns="http://www.w3.org/2000/svg" width="72" height="72" viewBox="0 0 72 72">
    <g fill="none" fill-rule="evenodd">
        <path fill="#EFEFEF" stroke="#DEDEDE" d="M70 .5c.414 0 .79.168 1.06.44.272.27.44.646.44 1.06h0v68c0 .414-.168.79-.44 1.06-.27.272-.646.44-1.06.44h0H2c-.414 0-.79-.168-1.06-.44C.667 70.79.5 70.415.5 70h0V2c0-.414.168-.79.44-1.06C1.21.667 1.585.5 2 .5h0z"/>
        <text fill="#000" font-family="Helvetica" font-size="12">
            <tspan x="24" y="53">SOP</tspan>
        </text>
        <g fill="#000" fill-rule="nonzero">
            <path d="M20.543 0H.457C.204 0 0 .204 0 .457v26.478c0 .252.204.456.457.456h17.347c.121 0 .238-.048.323-.133l2.74-2.74c.085-.085.133-.201.133-.322V.456C21 .205 20.796 0 20.543 0zM.913.913h19.174v22.826h-2.283c-.252 0-.456.205-.456.457v2.282H.913V.913zm18.528 23.74l-1.18 1.18v-1.18h1.18z" transform="translate(26 12)"/>
            <path d="M2.283 11.87L5.022 11.87 5.022 12.783 2.283 12.783zM9.587 11.87L18.717 11.87 18.717 12.783 9.587 12.783zM7.761 11.87L8.674 11.87 8.674 12.783 7.761 12.783zM2.283 10.043L5.022 10.043 5.022 10.957 2.283 10.957zM7.761 10.043L16.891 10.043 16.891 10.957 7.761 10.957zM17.804 10.043L18.717 10.043 18.717 10.957 17.804 10.957zM2.283 15.522L5.022 15.522 5.022 16.435 2.283 16.435zM9.587 15.522L18.717 15.522 18.717 16.435 9.587 16.435zM7.761 15.522L8.674 15.522 8.674 16.435 7.761 16.435zM2.283 13.696L5.022 13.696 5.022 14.609 2.283 14.609zM7.761 13.696L16.891 13.696 16.891 14.609 7.761 14.609zM17.804 13.696L18.717 13.696 18.717 14.609 17.804 14.609zM2.283 19.174L5.022 19.174 5.022 20.087 2.283 20.087zM9.587 19.174L18.717 19.174 18.717 20.087 9.587 20.087zM7.761 19.174L8.674 19.174 8.674 20.087 7.761 20.087zM2.283 17.348L5.022 17.348 5.022 18.261 2.283 18.261zM7.761 17.348L16.891 17.348 16.891 18.261 7.761 18.261zM17.804 17.348L18.717 17.348 18.717 18.261 17.804 18.261zM1.826 7.304L19.174 7.304 19.174 8.217 1.826 8.217zM4.109 6.391c1.26 0 2.282-1.022 2.282-2.282 0-1.261-1.022-2.283-2.282-2.283-1.261 0-2.283 1.022-2.283 2.283.002 1.26 1.023 2.28 2.283 2.282zm0-3.652c.756 0 1.37.613 1.37 1.37 0 .756-.614 1.37-1.37 1.37-.757 0-1.37-.614-1.37-1.37 0-.757.613-1.37 1.37-1.37zM7.304 1.826L11.87 1.826 11.87 2.739 7.304 2.739zM7.304 3.652L10.043 3.652 10.043 4.565 7.304 4.565zM12.783 1.826L19.174 1.826 19.174 2.739 12.783 2.739zM10.957 3.652L19.174 3.652 19.174 4.565 10.957 4.565zM7.304 5.478L13.696 5.478 13.696 6.391 7.304 6.391zM14.609 5.478L15.522 5.478 15.522 6.391 14.609 6.391zM1.826 21.913v3.652h11.87v-3.652H1.826zm10.957 2.74H2.739v-1.827h10.044v1.826z" transform="translate(26 12)"/>
        </g>
    </g>
</svg>
