<svg xmlns="http://www.w3.org/2000/svg" width="28" height="27" viewBox="0 0 28 27">
    <path fill="#9C9BBB" fill-rule="evenodd" d="M25.8 15.98c-.001 1.612-1.308 2.917-2.92 2.92h-.358c-.538 0-.974.435-.974.973V23.3l-4.118-4.117c-.183-.182-.43-.284-.688-.284H4.865c-1.611-.002-2.917-1.308-2.92-2.92V4.87c0-1.613 1.307-2.922 2.92-2.924h18.02C24.497 1.95 25.8 3.259 25.8 4.87v11.11zM22.885 0H4.865C2.178.005 0 2.184 0 4.87v11.11c.004 2.685 2.18 4.861 4.865 4.864h11.478l5.494 5.494c.38.38.996.38 1.376 0 .183-.182.285-.429.285-.687v-4.845c2.429-.31 4.249-2.378 4.252-4.826V4.87C27.749 2.182 25.572.003 22.885 0z"/>
</svg>
