<svg xmlns="http://www.w3.org/2000/svg" xmlns:xlink="http://www.w3.org/1999/xlink" width="30" height="24" viewBox="0 0 30 24">
    <defs>
        <path id="prefix__a" d="M0 0.437L21.58 0.437 21.58 23.999 0 23.999z"/>
        <path id="prefix__c" d="M0.568 0.485L7.612 0.485 7.612 15.997 0.568 15.997z"/>
    </defs>
    <g fill="none" fill-rule="evenodd">
        <path fill="#135798" d="M15.625 16.645c-.459.444-1.192.432-1.636-.028-.433-.45-.433-1.16 0-1.608.363-.358 2.828-2.116 5.861-4.225-2.108 3.033-3.866 5.498-4.224 5.86zM25.17 5.464c-.393-.393-1.01-.451-1.47-.138-1.73 1.18-10.414 7.113-11.347 8.046-1.332 1.378-1.294 3.576.084 4.908 1.346 1.3 3.48 1.3 4.824 0 .933-.933 6.866-9.616 8.046-11.347.313-.46.256-1.076-.137-1.47z" transform="translate(0 -1)"/>
        <g transform="translate(0 -1) translate(0 .563)">
            <mask id="prefix__b" fill="#fff">
                <use xlink:href="#prefix__a"/>
            </mask>
            <path fill="#135798" d="M5.334 20.644l-1.428.699c-1.806-3.215-2.092-7.066-.78-10.512l1.637.785c.57.29 1.266.064 1.556-.506.29-.569.064-1.266-.505-1.556l-.05-.024-1.616-.775c2.056-3.362 5.576-5.559 9.5-5.928v1.739c0 .64.518 1.158 1.157 1.158.64 0 1.157-.518 1.157-1.158V2.821c1.375.124 2.72.478 3.978 1.048.583.264 1.271.006 1.536-.578.265-.583.006-1.271-.577-1.536-7.447-3.368-16.215-.061-19.584 7.386-2.11 4.665-1.659 10.09 1.193 14.343.321.481.948.652 1.47.399l2.371-1.16c.574-.279.813-.973.533-1.547-.28-.574-.973-.812-1.547-.532z" mask="url(#prefix__b)"/>
        </g>
        <g transform="translate(0 -1) translate(22 8.563)">
            <mask id="prefix__d" fill="#fff">
                <use xlink:href="#prefix__c"/>
            </mask>
            <path fill="#135798" d="M6.312 1.176C6.052.59 5.37.326 4.786.584c-.584.259-.85.942-.591 1.526l.008.018c1.625 3.607 1.439 7.772-.5 11.22l-1.492-.71c-.58-.267-1.267-.015-1.536.565-.263.57-.023 1.248.54 1.525l2.432 1.156c.518.248 1.139.078 1.459-.4 2.847-4.24 3.3-9.651 1.199-14.307l.007-.001z" mask="url(#prefix__d)"/>
        </g>
    </g>
</svg>
