<svg xmlns="http://www.w3.org/2000/svg" width="43.75" height="50" viewBox="0 0 43.75 50"><defs><style>.a{fill:#e2e5e7;}.b{fill:#b0b7bd;}.c{fill:#cad1d8;}.d{fill:#50bee8;}.e{fill:#fff;}</style></defs><g transform="translate(-32)"><path class="a" d="M99.125,0A3.134,3.134,0,0,0,96,3.125v43.75A3.134,3.134,0,0,0,99.125,50h31.25a3.134,3.134,0,0,0,3.125-3.125V12.5L121,0Z" transform="translate(-57.75)"/><path class="b" d="M355.125,12.5H364.5L352,0V9.375A3.134,3.134,0,0,0,355.125,12.5Z" transform="translate(-288.75)"/><path class="c" d="M393.375,137.375,384,128h9.375Z" transform="translate(-317.625 -115.5)"/><path class="d" d="M69.5,257.188a1.567,1.567,0,0,1-1.562,1.563H33.563A1.567,1.567,0,0,1,32,257.188V241.563A1.567,1.567,0,0,1,33.563,240H67.938a1.567,1.567,0,0,1,1.563,1.563Z" transform="translate(0 -216.563)"/><g transform="translate(37.053 28.542)"><path class="e" d="M84.606,304.117a.783.783,0,0,1-.863-.775v-7.1a.849.849,0,0,1,.863-.775h2.861c5.709,0,5.583,8.645.111,8.645ZM85.394,297v5.6h2.073c3.373,0,3.522-5.6,0-5.6Z" transform="translate(-83.744 -295.159)"/><path class="e" d="M184.471,301.355a4.363,4.363,0,0,1-4.711-4.5,4.591,4.591,0,0,1,9.183,0A4.357,4.357,0,0,1,184.471,301.355Zm-.137-7.458a2.962,2.962,0,1,0,2.973,2.961A2.859,2.859,0,0,0,184.333,293.9Z" transform="translate(-170.383 -292.272)"/><path class="e" d="M288.848,297.652a4.205,4.205,0,0,1,4.386-4.484,4.083,4.083,0,0,1,2.861,1.112.81.81,0,1,1-1.112,1.173,2.156,2.156,0,0,0-1.748-.686,2.7,2.7,0,0,0-2.847,2.886,2.747,2.747,0,0,0,2.847,2.973,2.918,2.918,0,0,0,1.95-.8.839.839,0,0,1,1.148.15.862.862,0,0,1-.137,1.173,4.086,4.086,0,0,1-2.962.977C290.21,302.127,288.848,300.063,288.848,297.652Z" transform="translate(-268.818 -293.081)"/></g><path class="c" d="M125.688,417.563H96v1.563h29.688a1.567,1.567,0,0,0,1.563-1.562V416A1.567,1.567,0,0,1,125.688,417.563Z" transform="translate(-57.75 -375.375)"/></g></svg>