<svg xmlns="http://www.w3.org/2000/svg" width="40" height="40" viewBox="0 0 40 40"><defs><style>.a{fill:#d3dde5;}.b{fill:#1a6b8f;}</style></defs><g transform="translate(-131 -2415)"><circle class="a" cx="20" cy="20" r="20" transform="translate(131 2415)"/><g transform="translate(143.444 2423.889)"><g transform="translate(0)"><path class="b" d="M92.086,18.247h0c.021.021.044.042.067.061l.033.025.04.029.04.025.037.022.042.02.04.019.042.015.044.015.042.011.046.011.049.007.04.006a.931.931,0,0,0,.183,0l.041-.006.049-.007.046-.011.042-.011.044-.015.042-.015.04-.019.042-.02.037-.022.04-.025.04-.029.033-.025c.023-.019.046-.039.067-.061h0l6.481-6.481a.926.926,0,1,0-1.309-1.309l-4.9,4.9V.926a.926.926,0,1,0-1.852,0V15.357l-4.9-4.9A.926.926,0,0,0,85.6,11.766Z" transform="translate(-85.334)"/><path class="b" d="M99.223,469.333H86.26a.926.926,0,0,0,0,1.852H99.223a.926.926,0,1,0,0-1.852Z" transform="translate(-85.334 -448.963)"/></g></g></g></svg>