<svg xmlns="http://www.w3.org/2000/svg" width="30.912" height="41.822" viewBox="0 0 30.912 41.822"><defs><style>.a{fill:#666;}</style></defs><g transform="translate(-61.381)"><path class="a" d="M84.994,0H63.945a2.569,2.569,0,0,0-2.564,2.565V39.257a2.567,2.567,0,0,0,2.564,2.565H89.729a2.567,2.567,0,0,0,2.564-2.565V7.93ZM85.6,3.838l3.2,3.477H85.6Zm4.54,35.419a.413.413,0,0,1-.412.411H63.945a.412.412,0,0,1-.41-.411V2.565a.41.41,0,0,1,.41-.41h19.5V8.392a1.077,1.077,0,0,0,1.078,1.075h5.617Zm-22.805-27.8H85.623a.807.807,0,0,1,0,1.614H67.334a.807.807,0,1,1,0-1.614Zm19.1,6.229a.807.807,0,0,1-.807.807H67.334a.807.807,0,1,1,0-1.614H85.623A.807.807,0,0,1,86.43,17.684Zm0,5.245a.807.807,0,0,1-.807.807H67.334a.807.807,0,1,1,0-1.614H85.623A.807.807,0,0,1,86.43,22.928Zm0,5.334a.807.807,0,0,1-.807.807H67.334a.807.807,0,1,1,0-1.614H85.623A.807.807,0,0,1,86.43,28.262Z"/></g></svg>