<svg xmlns="http://www.w3.org/2000/svg" width="39.206" height="39.152" viewBox="0 0 39.206 39.152"><defs><style>.a{fill:#999;}</style></defs><g transform="translate(0 23.913)"><path class="a" d="M36.143,312.642v10.644a1.533,1.533,0,0,1-1.531,1.532H4.594a1.533,1.533,0,0,1-1.531-1.532V312.642H0v10.644a4.6,4.6,0,0,0,4.594,4.595H34.612a4.6,4.6,0,0,0,4.594-4.595V312.642Z" transform="translate(0 -312.642)"/></g><g transform="translate(10.086 0)"><g transform="translate(0 0)"><path class="a" d="M141.233.358l-9.517,9.517,2.166,2.166,5.82-5.82v23.87h3.063V6.221l5.82,5.82,2.166-2.166Z" transform="translate(-131.716 -0.358)"/></g></g></svg>