<svg xmlns="http://www.w3.org/2000/svg" width="43.75" height="50" viewBox="0 0 43.75 50"><defs><style>.a{fill:#e2e5e7;}.b{fill:#b0b7bd;}.c{fill:#cad1d8;}.d{fill:#043555;}.e{fill:#fff;}</style></defs><path class="a" d="M99.125,0A3.134,3.134,0,0,0,96,3.125v43.75A3.134,3.134,0,0,0,99.125,50h31.25a3.134,3.134,0,0,0,3.125-3.125V12.5L121,0Z" transform="translate(-89.75)"/><path class="b" d="M355.125,12.5H364.5L352,0V9.375A3.134,3.134,0,0,0,355.125,12.5Z" transform="translate(-320.75)"/><path class="c" d="M393.375,137.375,384,128h9.375Z" transform="translate(-349.625 -115.5)"/><path class="d" d="M69.5,257.188a1.567,1.567,0,0,1-1.562,1.563H33.563A1.567,1.567,0,0,1,32,257.188V241.563A1.567,1.567,0,0,1,33.563,240H67.938a1.567,1.567,0,0,1,1.563,1.563Z" transform="translate(-32 -216.563)"/><g transform="translate(8.971 28.742)"><path class="e" d="M124.719,303.222a.774.774,0,0,1-.65-1.3l4.448-5.909H124.83a.767.767,0,1,1,0-1.534h5.036c.948,0,1.223.9.55,1.623l-4.261,5.533h4.061a.8.8,0,1,1-.1,1.587h-5.4Z" transform="translate(-123.862 -294.464)"/><path class="e" d="M212.048,295.918a.826.826,0,0,1,1.65,0v7.133a.826.826,0,0,1-1.65,0Z" transform="translate(-203.436 -295.056)"/><path class="e" d="M251.616,295.182a.86.86,0,0,1,.85-.862h2.886a3.124,3.124,0,0,1,0,6.247h-2.086v1.65a.784.784,0,0,1-.8.861.843.843,0,0,1-.85-.861v-7.034Zm1.648.711v3.113h2.086a1.557,1.557,0,0,0,0-3.113Z" transform="translate(-239.14 -294.32)"/></g><path class="c" d="M125.688,417.563H96v1.563h29.688a1.567,1.567,0,0,0,1.562-1.562V416A1.567,1.567,0,0,1,125.688,417.563Z" transform="translate(-89.75 -375.375)"/></svg>