<svg xmlns="http://www.w3.org/2000/svg" width="29" height="7" viewBox="0 0 29 7">
    <g fill="none" fill-rule="evenodd">
        <path stroke="#D4E0EC" stroke-dasharray="3" stroke-linecap="square" d="M0.5 3.5L28.5 3.5"/>
        <path fill="#000" fill-rule="nonzero" d="M11.627 2.704L7.938.178C7.768.062 7.596 0 7.453 0c-.275 0-.446.221-.446.592v5.459c0 .37.17.59.446.59.143 0 .311-.061.482-.178l3.691-2.526c.238-.162.369-.381.369-.616s-.13-.454-.368-.617zM21.627 2.704L17.938.178C17.768.062 17.596 0 17.453 0c-.275 0-.446.221-.446.592v5.459c0 .37.17.59.446.59.143 0 .311-.061.482-.178l3.691-2.526c.238-.162.369-.381.369-.616s-.13-.454-.368-.617z"/>
    </g>
</svg>
