<svg xmlns="http://www.w3.org/2000/svg" width="16" height="16" viewBox="0 0 16 16">
  <path id="Icon_awesome-question-circle" data-name="Icon awesome-question-circle" d="M16.25,8.25a8,8,0,1,1-8-8A8,8,0,0,1,16.25,8.25ZM8.465,2.9a4.178,4.178,0,0,0-3.76,2.057.388.388,0,0,0,.088.524l1.119.849a.387.387,0,0,0,.538-.068C7.026,5.526,7.421,5.1,8.3,5.1c.659,0,1.474.424,1.474,1.063,0,.483-.4.731-1.049,1.1-.759.425-1.763.955-1.763,2.279v.129a.387.387,0,0,0,.387.387H9.153a.387.387,0,0,0,.387-.387V9.626c0-.918,2.683-.956,2.683-3.441C12.224,4.314,10.283,2.9,8.465,2.9Zm-.215,8a1.484,1.484,0,1,0,1.484,1.484A1.486,1.486,0,0,0,8.25,10.9Z" transform="translate(-0.25 -0.25)" fill="#257c76"/>
</svg>
