<svg xmlns="http://www.w3.org/2000/svg" width="370" height="133" viewBox="0 0 370 133">
  <g id="Total_Earnings" data-name="Total Earnings" transform="translate(-1210 -469)">
    <g id="BG" transform="translate(1210 469)" fill="#fff" stroke="#e1e1e1" stroke-width="1">
      <rect width="370" height="133" stroke="none"/>
      <rect x="0.5" y="0.5" width="369" height="132" fill="none"/>
    </g>
    <path id="Bar_Chart" data-name="Bar Chart" d="M98,119V101h6v18Zm-9,0V89h8v30Zm-9,0V99h8v20Zm-9,0V106h8v13Zm-9,0V94h8v25Zm-9,0V84h8v35Zm-9,0V94h8v25Zm-9,0V99h8v20Zm-9,0V79h8v40Zm-9,0V89h8v30Zm-7,0V101h6v18Zm-9,0V89H9v30Zm-9,0V99H0v20Z" transform="translate(1456 463)" fill="#00aeef"/>
    <g id="Naked_Label" data-name="Naked Label">
      <text id="_13.8_" data-name="13.8%" transform="translate(1242 579)" fill="#ff4141" font-size="11" font-family="SourceSansPro-Bold, Source Sans Pro" font-weight="700"><tspan x="0" y="0">13.8%</tspan></text>
      <path id="DownArrow" d="M9,9V4A.945.945,0,0,0,8,3H8A.945.945,0,0,0,7,4V9H4l4,4,4-4Z" transform="translate(1226 567)" fill="#ff4141"/>
    </g>
    <text id="_398" data-name="398" transform="translate(1230 560)" fill="#4d4f5c" font-size="25" font-family="SourceSansPro-Bold, Source Sans Pro" font-weight="700"><tspan x="0" y="0">398</tspan></text>
    <text id="Policies_Reviewed_" data-name="Policies Reviewed " transform="translate(1230 501)" fill="#666" font-size="16" font-family="Roboto-Regular, Roboto"><tspan x="0" y="0">Policies Reviewed </tspan></text>
  </g>
</svg>
