<svg xmlns="http://www.w3.org/2000/svg" width="16" height="14" viewBox="0 0 16 14">
  <path id="Icon_awesome-folder-open" data-name="Icon awesome-folder-open" d="M15.908,12.816,13.9,17.342A1.755,1.755,0,0,1,12.361,18.5H1.251c-.515,0-.835-.733-.576-1.316l2.012-4.526A1.755,1.755,0,0,1,4.222,11.5h11.11c.515,0,.835.733.576,1.316ZM4.222,10.333h9.111V8.583A1.585,1.585,0,0,0,12,6.833H7.556L5.778,4.5H1.333A1.585,1.585,0,0,0,0,6.25V16.387L1.919,12.07A2.642,2.642,0,0,1,4.222,10.333Z" transform="translate(0 -4.5)" fill="#666"/>
</svg>
