<svg xmlns="http://www.w3.org/2000/svg" xmlns:xlink="http://www.w3.org/1999/xlink" width="77" height="90" viewBox="0 0 77 90">
    <defs>
        <path id="prefix__a" d="M0.112 0L70.814 0 70.814 89.412 0.112 89.412z"/>
    </defs>
    <g fill="none" fill-rule="evenodd">
        <g transform="translate(5.141)">
            <mask id="prefix__b" fill="#fff">
                <use xlink:href="#prefix__a"/>
            </mask>
            <path fill="#E48E66" d="M44.058 33.194c0-4.753-3.853-8.606-8.606-8.606s-8.606 3.853-8.606 8.606S30.7 41.8 35.452 41.8c2.283.003 4.473-.903 6.088-2.517 1.614-1.615 2.52-3.806 2.518-6.089zm-22.957 31.63h28.701c0-8.606-6.437-14.932-14.35-14.932-7.913 0-14.351 6.326-14.351 14.932zM.11 73.407V8.94C.112 4.003 4.115-.002 9.054 0h52.82c4.939-.002 8.942 4.003 8.941 8.941v71.53c.001 4.938-4.002 8.943-8.94 8.94H9.052C4.114 89.415.11 85.41.112 80.472v-7.064z" mask="url(#prefix__b)"/>
        </g>
        <path fill="#D18162" d="M40.593 0H12.83C8.941 0 5.79 3.756 5.79 8.405v72.602c0 4.65 3.151 8.405 7.04 8.405h27.785V0h-.022z"/>
        <path fill="#F8EC7D" d="M54.944 64.824H26.242c0-8.606 6.438-14.932 14.351-14.932 7.936 0 14.35 6.326 14.35 14.932M49.2 33.194c0 4.753-3.854 8.606-8.607 8.606-4.753 0-8.606-3.853-8.606-8.606s3.853-8.606 8.606-8.606 8.606 3.853 8.606 8.606"/>
        <path fill="#63316D" d="M12.718 13.77H2.235c-1.234 0-2.235 1-2.235 2.235 0 1.234 1 2.235 2.235 2.235h10.483c1.235 0 2.236-1.001 2.236-2.235s-1.001-2.235-2.236-2.235M12.718 32.903H2.235C1.001 32.903 0 33.904 0 35.14c0 1.234 1 2.235 2.235 2.235h10.483c1.235 0 2.236-1 2.236-2.235 0-1.235-1.001-2.236-2.236-2.236M12.718 52.038H2.235c-1.234 0-2.235 1-2.235 2.235 0 1.235 1 2.235 2.235 2.235h10.483c1.235 0 2.236-1 2.236-2.235 0-1.234-1.001-2.235-2.236-2.235M12.718 71.171H2.235C1.001 71.171 0 72.173 0 73.407c0 1.234 1 2.235 2.235 2.235h10.483c1.235 0 2.236-1 2.236-2.235 0-1.234-1.001-2.236-2.236-2.236"/>
    </g>
</svg>
