<svg xmlns="http://www.w3.org/2000/svg" xmlns:xlink="http://www.w3.org/1999/xlink" width="91" height="83" viewBox="0 0 91 83">
    <defs>
        <path id="prefix__a" d="M0 0.14L82.874 0.14 82.874 83 0 83z"/>
        <path id="prefix__c" d="M0.033 0.054L87 0.054 87 52 0.033 52z"/>
    </defs>
    <g fill="none" fill-rule="evenodd">
        <mask id="prefix__b" fill="#fff">
            <use xlink:href="#prefix__a"/>
        </mask>
        <path fill="#42D7B6" d="M4.466 83c-1.234 0-2.35-.501-3.158-1.314C.5 80.874 0 79.752 0 78.515V7.05C0 3.234 3.081.14 6.882.14h26.254c1.983 0 3.87.859 5.176 2.36l5.96 6.837c1.306 1.502 3.193 2.361 5.18 2.361h26.54c3.8 0 6.882 3.094 6.882 6.911v48.074C82.874 75.695 75.6 83 66.627 83H4.467" mask="url(#prefix__b)"/>
        <path fill="#26B593" d="M76.85 34.474l-8.814 39.415c-.636 2.84-3.152 4.86-6.06 4.86l-8.512 3.13c-4.284.03-8.743.055-13.172.076-19.601.09-38.588.075-38.977-.318C.502 80.822 0 79.697 0 78.457V51.098l3.644-16.293C4.664 30.242 8.705 27 13.37 27h57.507c3.92 0 6.829 3.64 5.971 7.474"/>
        <g transform="translate(4 31)">
            <mask id="prefix__d" fill="#fff">
                <use xlink:href="#prefix__c"/>
            </mask>
            <path fill="#42D7B6" d="M86.849 7.556l-8.833 39.565C77.38 49.972 74.858 52 71.944 52H.033c2.106 0 3.93-1.467 4.39-3.529L8.56 29.936 13.483 7.89C14.506 3.309 18.556.054 23.232.054h57.632c3.93 0 6.845 3.655 5.985 7.502" mask="url(#prefix__d)"/>
        </g>
    </g>
</svg>
