<svg xmlns="http://www.w3.org/2000/svg" width="78" height="90" viewBox="0 0 78 90">
    <g fill="none" fill-rule="evenodd">
        <path fill="#E2E5E7" d="M16.714 0c-3.064 0-5.571 2.507-5.571 5.571v78c0 3.065 2.507 5.572 5.571 5.572H72.43c3.064 0 5.571-2.507 5.571-5.572V22.286L55.714 0h-39z"/>
        <path fill="#B0B7BD" d="M61.286 22.286H78L55.714 0v16.714c0 3.065 2.507 5.572 5.572 5.572"/>
        <path fill="#CAD1D8" d="M78 39L61.286 22.286 78 22.286z"/>
        <path fill="#F15642" d="M66.857 72.429c0 1.532-1.253 2.785-2.786 2.785H2.786C1.254 75.214 0 73.961 0 72.43V44.57c0-1.532 1.254-2.785 2.786-2.785H64.07c1.533 0 2.786 1.253 2.786 2.785V72.43z"/>
        <path fill="#FFF" d="M15.082 54.048v5.55H18.8c1.493 0 2.674-1.318 2.674-2.7 0-1.557-1.181-2.85-2.674-2.85h-3.72zm-2.94-1.267c0-.736.58-1.538 1.514-1.538H18.8c2.897 0 5.504 1.939 5.504 5.655 0 3.521-2.607 5.482-5.504 5.482h-3.72v2.942c0 .98-.623 1.535-1.425 1.535-.736 0-1.513-.554-1.513-1.535V52.781zM30.072 54.163v9.978h3.696c6.015 0 6.282-9.978 0-9.978h-3.696zm-1.404 12.694c-.736 0-1.538-.401-1.538-1.379V52.825c0-.799.802-1.381 1.538-1.381h5.1c10.18 0 9.957 15.413.201 15.413h-5.301zM47.335 54.341v3.54h5.68c.802 0 1.605.803 1.605 1.58 0 .736-.803 1.337-1.605 1.337h-5.68v4.677c0 .78-.554 1.38-1.334 1.38-.981 0-1.58-.6-1.58-1.38V52.823c0-.8.602-1.382 1.58-1.382h7.819c.98 0 1.56.582 1.56 1.382 0 .713-.58 1.515-1.56 1.515h-6.485v.003z"/>
        <path fill="#CAD1D8" d="M64.071 75.214H11.143V78H64.07c1.533 0 2.786-1.254 2.786-2.786V72.43c0 1.532-1.253 2.785-2.786 2.785"/>
    </g>
</svg>
