<svg xmlns="http://www.w3.org/2000/svg" width="16" height="14" viewBox="0 0 16 14">
  <path id="Icon_material-local-activity" data-name="Icon material-local-activity" d="M15.733,9.667a1.685,1.685,0,0,1,1.6-1.75v-3.5a1.685,1.685,0,0,0-1.6-1.75H2.933a1.679,1.679,0,0,0-1.592,1.75v3.5a1.679,1.679,0,0,1,1.592,1.75,1.68,1.68,0,0,1-1.6,1.75v3.5a1.685,1.685,0,0,0,1.6,1.75h12.8a1.685,1.685,0,0,0,1.6-1.75v-3.5a1.685,1.685,0,0,1-1.6-1.75Zm-3.536,4.2L9.333,11.854,6.469,13.867l.864-3.605L4.7,7.908l3.392-.219,1.24-3.448L10.565,7.7l3.392.219L11.325,10.27Z" transform="translate(-1.333 -2.667)" fill="#257c76"/>
</svg>
