<svg xmlns="http://www.w3.org/2000/svg" width="16" height="16" viewBox="0 0 16 16">
  <path id="Icon_awesome-tasks" data-name="Icon awesome-tasks" d="M4.363,2.379a.335.335,0,0,0-.531,0L1.842,4.723,1.132,3.9a.348.348,0,0,0-.266-.131A.348.348,0,0,0,.6,3.9L.11,4.486a.5.5,0,0,0,0,.63L1.6,6.871a.356.356,0,0,0,.55,0l.487-.578L4.891,3.619a.509.509,0,0,0,0-.63Zm0,5.9a.335.335,0,0,0-.531,0l-1.99,2.36-.709-.818a.348.348,0,0,0-.266-.131A.348.348,0,0,0,.6,9.816L.11,10.4a.5.5,0,0,0,0,.63l1.483,1.759a.355.355,0,0,0,.55,0l.491-.581L4.891,9.53a.5.5,0,0,0,0-.626ZM2,14.693A1.671,1.671,0,0,0,.482,16.47,1.671,1.671,0,0,0,2,18.248,1.657,1.657,0,0,0,3.5,16.47,1.657,1.657,0,0,0,2,14.693Zm13.5.593h-9a.552.552,0,0,0-.5.593v1.185a.552.552,0,0,0,.5.593h9a.552.552,0,0,0,.5-.593V15.878A.552.552,0,0,0,15.5,15.285Zm0-11.851h-9a.552.552,0,0,0-.5.593V5.212a.552.552,0,0,0,.5.593h9a.552.552,0,0,0,.5-.593V4.027A.552.552,0,0,0,15.5,3.434Zm0,5.926h-9a.552.552,0,0,0-.5.593v1.185a.552.552,0,0,0,.5.593h9a.552.552,0,0,0,.5-.593V9.952A.552.552,0,0,0,15.5,9.36Z" transform="translate(0 -2.248)" fill="#666"/>
</svg>
