<svg xmlns="http://www.w3.org/2000/svg" width="16" height="14" viewBox="0 0 16 14">
  <path id="Icon_awesome-th-list" data-name="Icon awesome-th-list" d="M4.667,8v2.5a.75.75,0,0,1-.75.75H.75A.75.75,0,0,1,0,10.5V8a.75.75,0,0,1,.75-.75H3.917a.75.75,0,0,1,.75.75ZM0,13v2.5a.75.75,0,0,0,.75.75H3.917a.75.75,0,0,0,.75-.75V13a.75.75,0,0,0-.75-.75H.75A.75.75,0,0,0,0,13ZM3.917,2.25H.75A.75.75,0,0,0,0,3V5.5a.75.75,0,0,0,.75.75H3.917a.75.75,0,0,0,.75-.75V3a.75.75,0,0,0-.75-.75Zm2.5,14H15.25A.75.75,0,0,0,16,15.5V13a.75.75,0,0,0-.75-.75H6.417a.75.75,0,0,0-.75.75v2.5A.75.75,0,0,0,6.417,16.25ZM5.667,3V5.5a.75.75,0,0,0,.75.75H15.25A.75.75,0,0,0,16,5.5V3a.75.75,0,0,0-.75-.75H6.417A.75.75,0,0,0,5.667,3Zm.75,8.25H15.25A.75.75,0,0,0,16,10.5V8a.75.75,0,0,0-.75-.75H6.417a.75.75,0,0,0-.75.75v2.5A.75.75,0,0,0,6.417,11.25Z" transform="translate(0 -2.25)" fill="#666"/>
</svg>
